:FULLY-SPECIFIED
:FORCE-ALL-JOINTS-BE-3DOF
:DEGREES
1
root 6.24314 16.836 -28.1378 9.0217 -2.52979 -3.05774
lfemur -20.3712 2.30257 -19.9954
ltibia 35.927 0 0
lfoot -38.654 3.93715 0
ltoes 38.9541 0 0
rfemur -19.4747 0.22019 19.5256
rtibia 36.0342 0 0
rfoot -30.3779 -10.4967 0
rtoes 21.4483 0 0
lowerback -2.05144 3.66971 -5.03766
upperback -2.66728 5.00355 3.49279
thorax -2.36397 2.67023 6.42441
lowerneck -9.84699 -2.36864 1.94815
upperneck -1.37933 -3.32542 -1.65382
head 1.16433 -1.69823 -0.975663
lclavicle -1.65488e-14 -3.69739e-14 0
lhumerus -41.7253 -10.8128 99.8312
lradius 34.5094 0 0
lwrist 2.17521 0 0
lhand -10.5949 9.65639 0
lfingers 7.12502 0 0
lthumb 15.4107 39.062 0
rclavicle -1.65488e-14 -3.69739e-14 0
rhumerus -43.273 -4.86223 -84.2703
rradius 40.4763 0 0
rwrist 9.89469 0 0
rhand -23.7965 -22.476 0
rfingers 7.12502 0 0
rthumb 2.67393 -52.439 0
2
root 6.242 16.8364 -28.1374 9.02603 -2.52644 -3.05455
lfemur -20.3686 2.29894 -19.994
ltibia 35.9158 -0 0
lfoot -38.6418 3.93856 2.26616e-05
ltoes 38.9458 -0 0
rfemur -19.4587 0.257675 19.5252
rtibia 36.0034 -0 0
rfoot -30.3629 -10.5407 -0.00087187
rtoes 21.4201 -0 0
lowerback -2.068 3.66342 -5.01929
upperback -2.66379 4.99545 3.48161
thorax -2.34774 2.66484 6.40364
lowerneck -9.84609 -2.36512 1.95038
upperneck -1.38555 -3.32119 -1.64422
head 1.16234 -1.69594 -0.972787
lclavicle -1.59729e-14 -3.66282e-14 -2.61991e-31
lhumerus -41.7251 -10.8179 99.8157
lradius 34.5204 -0 0
lwrist 2.18664 0 0
lhand -10.5986 9.62763 0.000140504
lfingers 7.12502 -0 0
lthumb 15.4071 39.0335 0.000134076
rclavicle -1.59729e-14 -3.66282e-14 -2.61991e-31
rhumerus -43.2603 -4.86367 -84.2903
rradius 40.472 -0 0
rwrist 9.89941 0 0
rhand -23.8172 -22.4592 -0.00045695
rfingers 7.12502 -0 0
rthumb 2.65396 -52.4223 -0.000438473
3
root 6.23873 16.8375 -28.1361 9.03844 -2.51684 -3.04539
lfemur -20.3613 2.28851 -19.9899
ltibia 35.8836 -0 0
lfoot -38.6066 3.94259 8.60074e-05
ltoes 38.9218 -0 0
rfemur -19.4127 0.365212 19.5241
rtibia 35.915 -0 0
rfoot -30.3198 -10.6671 -0.00330903
rtoes 21.3392 -0 0
lowerback -2.11553 3.64539 -4.96659
upperback -2.65379 4.9722 3.44953
thorax -2.30117 2.64943 6.34406
lowerneck -9.84349 -2.35503 1.95679
upperneck -1.4034 -3.30903 -1.61668
head 1.15664 -1.68936 -0.964536
lclavicle -1.43209e-14 -3.56366e-14 -9.94324e-31
lhumerus -41.7244 -10.8326 99.7713
lradius 34.552 -0 0
lwrist 2.21943 0 0
lhand -10.6093 9.54511 0.000533275
lfingers 7.12502 -0 0
lthumb 15.3969 38.9518 0.000508877
rclavicle -1.43209e-14 -3.56366e-14 -9.94324e-31
rhumerus -43.224 -4.86777 -84.3478
rradius 40.4598 -0 0
rwrist 9.91294 0 0
rhand -23.8765 -22.4111 -0.00173431
rfingers 7.12502 -0 0
rthumb 2.59668 -52.3745 -0.00166418
4
root 6.23356 16.8392 -28.1341 9.0581 -2.50164 -3.03089
lfemur -20.3497 2.272 -19.9836
ltibia 35.8326 -0 0
lfoot -38.551 3.94897 0.00018122
ltoes 38.8839 -0 0
rfemur -19.34 0.53543 19.5225
rtibia 35.7751 -0 0
rfoot -30.2515 -10.8671 -0.00697236
rtoes 21.211 -0 0
lowerback -2.1908 3.61694 -4.88314
upperback -2.63792 4.93543 3.39875
thorax -2.22742 2.62512 6.24972
lowerneck -9.83938 -2.33905 1.96693
upperneck -1.43165 -3.28978 -1.57309
head 1.14762 -1.67894 -0.951478
lclavicle -1.17058e-14 -3.40669e-14 -2.09505e-30
lhumerus -41.7232 -10.8559 99.7011
lradius 34.6019 -0 0
lwrist 2.27133 0 0
lhand -10.6261 9.41449 0.00112367
lfingers 7.12502 -0 0
lthumb 15.3806 38.8224 0.00107226
rclavicle -1.17058e-14 -3.40669e-14 -2.09505e-30
rhumerus -43.1665 -4.87419 -84.4387
rradius 40.4403 -0 0
rwrist 9.93436 0 0
rhand -23.9704 -22.3348 -0.00365437
rfingers 7.12502 -0 0
rthumb 2.506 -52.2987 -0.00350659
5
root 6.22671 16.8415 -28.1315 9.08415 -2.48151 -3.01167
lfemur -20.3342 2.25013 -19.9751
ltibia 35.7651 -0 0
lfoot -38.4774 3.95743 0.000297826
ltoes 38.8337 -0 0
rfemur -19.2437 0.760927 19.5207
rtibia 35.5898 -0 0
rfoot -30.1611 -11.132 -0.0114591
rtoes 21.0413 -0 0
lowerback -2.29059 3.57942 -4.77251
upperback -2.61685 4.88672 3.33146
thorax -2.12965 2.5931 6.12468
lowerneck -9.83392 -2.31788 1.98037
upperneck -1.46904 -3.26424 -1.51536
head 1.13567 -1.66513 -0.93418
lclavicle -8.2412e-15 -3.19872e-14 -3.44308e-30
lhumerus -41.7217 -10.8867 99.608
lradius 34.6681 -0 0
lwrist 2.34009 0 0
lhand -10.6484 9.24143 0.00184676
lfingers 7.12502 -0 0
lthumb 15.3591 38.6509 0.00176227
rclavicle -8.2412e-15 -3.19872e-14 -3.44308e-30
rhumerus -43.0902 -4.88256 -84.5592
rradius 40.4146 -0 0
rwrist 9.96275 0 0
rhand -24.0948 -22.2338 -0.00600595
rfingers 7.12502 -0 0
rthumb 2.38585 -52.1984 -0.00576307
6
root 6.2184 16.8443 -28.1282 9.11575 -2.45712 -2.98835
lfemur -20.3156 2.22361 -19.9648
ltibia 35.6833 -0 0
lfoot -38.388 3.96769 0.000424625
ltoes 38.7729 -0 0
rfemur -19.1269 1.03439 19.5191
rtibia 35.365 -0 0
rfoot -30.0514 -11.4533 -0.0163383
rtoes 20.8355 -0 0
lowerback -2.41168 3.53417 -4.63829
upperback -2.59123 4.82769 3.24985
thorax -2.01101 2.55456 5.97298
lowerneck -9.82731 -2.29222 1.99667
upperneck -1.51435 -3.23322 -1.44537
head 1.12118 -1.64838 -0.91321
lclavicle -4.0402e-15 -2.94656e-14 -4.90892e-30
lhumerus -41.7197 -10.924 99.4951
lradius 34.7484 -0 0
lwrist 2.42347 0 0
lhand -10.6755 9.03158 0.00263312
lfingers 7.12502 -0 0
lthumb 15.3331 38.443 0.00251264
rclavicle -4.0402e-15 -2.94656e-14 -4.90892e-30
rhumerus -42.9977 -4.89249 -84.7053
rradius 40.3834 -0 0
rwrist 9.99716 0 0
rhand -24.2456 -22.1114 -0.00856322
rfingers 7.12502 -0 0
rthumb 2.24016 -52.0767 -0.00821691
7
root 6.20885 16.8474 -28.1246 9.15204 -2.42912 -2.96156
lfemur -20.2941 2.19315 -19.953
ltibia 35.5893 -0 0
lfoot -38.2855 3.97947 0.000550503
ltoes 38.703 -0 0
rfemur -18.9927 1.34841 19.5179
rtibia 35.1069 -0 0
rfoot -29.9255 -11.8222 -0.0211822
rtoes 20.5991 -0 0
lowerback -2.55086 3.48257 -4.48405
upperback -2.5617 4.75996 3.15611
thorax -1.87464 2.51069 5.7987
lowerneck -9.8197 -2.26275 2.01538
upperneck -1.56632 -3.19753 -1.36505
head 1.10456 -1.62915 -0.889134
lclavicle 7.83865e-16 -2.65699e-14 -6.36411e-30
lhumerus -41.7174 -10.9669 99.3654
lradius 34.8406 -0 0
lwrist 2.51921 0 0
lhand -10.7066 8.79059 0.00341381
lfingers 7.12502 -0 0
lthumb 15.3031 38.2043 0.00325762
rclavicle 7.83865e-16 -2.65699e-14 -6.36411e-30
rhumerus -42.8915 -4.9036 -84.8731
rradius 40.3476 -0 0
rwrist 10.0367 0 0
rhand -24.4189 -21.9707 -0.0111021
rfingers 7.12502 -0 0
rthumb 2.07284 -51.937 -0.0106531
8
root 6.1983 16.851 -28.1205 9.19218 -2.39818 -2.93192
lfemur -20.2704 2.15947 -19.94
ltibia 35.4854 -0 0
lfoot -38.172 3.9925 0.000665135
ltoes 38.6257 -0 0
rfemur -18.8444 1.69563 19.5175
rtibia 34.8215 -0 0
rfoot -29.7862 -12.2302 -0.0255943
rtoes 20.3378 -0 0
lowerback -2.7049 3.42595 -4.31337
upperback -2.52893 4.68512 3.05243
thorax -1.72371 2.46266 5.60587
lowerneck -9.81127 -2.23017 2.03608
upperneck -1.62373 -3.15798 -1.27627
head 1.08618 -1.60787 -0.862522
lclavicle 6.11772e-15 -2.33682e-14 -7.68926e-30
lhumerus -41.7147 -11.0144 99.222
lradius 34.9425 -0 0
lwrist 2.62507 0 0
lhand -10.741 8.52413 0.00412479
lfingers 7.12502 -0 0
lthumb 15.27 37.9403 0.00393606
rclavicle 6.11772e-15 -2.33682e-14 -7.68926e-30
rhumerus -42.774 -4.91553 -85.0587
rradius 40.308 -0 0
rwrist 10.0804 0 0
rhand -24.6104 -21.8152 -0.0134142
rfingers 7.12502 -0 0
rthumb 1.88784 -51.7825 -0.0128716
9
root 6.18697 16.8547 -28.1161 9.23532 -2.36497 -2.90005
lfemur -20.245 2.12328 -19.9261
ltibia 35.3737 -0 0
lfoot -38.0502 4.00649 0.00075956
ltoes 38.5426 -0 0
rfemur -18.685 2.06866 19.518
rtibia 34.5149 -0 0
rfoot -29.6365 -12.6685 -0.029229
rtoes 20.057 -0 0
lowerback -2.87057 3.36563 -4.12984
upperback -2.49357 4.60478 2.94101
thorax -1.56138 2.41163 5.39858
lowerneck -9.80221 -2.19517 2.05833
upperneck -1.68534 -3.11539 -1.18095
head 1.06645 -1.585 -0.833939
lclavicle 1.18481e-14 -1.99285e-14 -8.78081e-30
lhumerus -41.7117 -11.0653 99.068
lradius 35.052 -0 0
lwrist 2.7388 0 0
lhand -10.7779 8.23786 0.00471047
lfingers 7.12502 -0 0
lthumb 15.2344 37.6568 0.00449494
rclavicle 1.18481e-14 -1.99285e-14 -8.78081e-30
rhumerus -42.6477 -4.92792 -85.2581
rradius 40.2654 -0 0
rwrist 10.1273 0 0
rhand -24.8162 -21.6481 -0.0153188
rfingers 7.12502 -0 0
rthumb 1.68908 -51.6164 -0.0146992
10
root 6.17507 16.8587 -28.1115 9.28062 -2.33014 -2.86658
lfemur -20.2183 2.08529 -19.9115
ltibia 35.2565 -0 0
lfoot -37.9223 4.02118 0.000826651
ltoes 38.4555 -0 0
rfemur -18.5177 2.46013 19.5196
rtibia 34.1932 -0 0
rfoot -29.4793 -13.1284 -0.0318116
rtoes 19.7624 -0 0
lowerback -3.04462 3.30289 -3.93706
upperback -2.45631 4.52055 2.82404
thorax -1.39084 2.35871 5.18089
lowerneck -9.79269 -2.15845 2.08168
upperneck -1.74992 -3.07059 -1.08096
head 1.04576 -1.561 -0.803952
lclavicle 1.78616e-14 -1.63189e-14 -9.55637e-30
lhumerus -41.7084 -11.1187 98.9062
lradius 35.1669 -0 0
lwrist 2.85815 0 0
lhand -10.8167 7.93744 0.00512661
lfingers 7.12502 -0 0
lthumb 15.1971 37.3591 0.00489205
rclavicle 1.78616e-14 -1.63189e-14 -9.55637e-30
rhumerus -42.5151 -4.94046 -85.4674
rradius 40.2207 -0 0
rwrist 10.1766 0 0
rhand -25.0322 -21.4727 -0.0166721
rfingers 7.12502 -0 0
rthumb 1.48048 -51.4422 -0.0159977
11
root 6.16284 16.8628 -28.1068 9.32721 -2.29436 -2.83214
lfemur -20.1908 2.04622 -19.8964
ltibia 35.136 -0 0
lfoot -37.7908 4.03628 0.000861461
ltoes 38.3659 -0 0
rfemur -18.3456 2.86266 19.5225
rtibia 33.8623 -0 0
rfoot -29.3177 -13.6014 -0.0331517
rtoes 19.4594 -0 0
lowerback -3.22381 3.239 -3.73865
upperback -2.41781 4.43401 2.70373
thorax -1.21527 2.30497 4.9569
lowerneck -9.78288 -2.12069 2.10569
upperneck -1.81623 -3.02441 -0.978211
head 1.0245 -1.5363 -0.773127
lclavicle 2.40451e-14 -1.26072e-14 -9.95878e-30
lhumerus -41.7048 -11.1737 98.7399
lradius 35.2851 -0 0
lwrist 2.98088 0 0
lhand -10.8565 7.62852 0.00534254
lfingers 7.12502 -0 0
lthumb 15.1587 37.0531 0.00509809
rclavicle 2.40451e-14 -1.26072e-14 -9.95878e-30
rhumerus -42.3788 -4.95284 -85.6826
rradius 40.1748 -0 0
rwrist 10.2272 0 0
rhand -25.2543 -21.2924 -0.0173742
rfingers 7.12502 -0 0
rthumb 1.26598 -51.2631 -0.0166715
